<?xml version="1.0" encoding="UTF-8"?>
<svg xmlns="http://www.w3.org/2000/svg" xmlns:xlink="http://www.w3.org/1999/xlink" viewBox="0 0 120 120" width="120px" height="120px">
<g id="surface14501375">
<path style=" stroke:none;fill-rule:nonzero;fill:#7248B9;fill-opacity:1;" d="M 98.828125 31.171875 L 76.828125 9.171875 C 76.074219 8.421875 75.058594 8 74 8 L 28 8 C 23.578125 8 20 11.578125 20 16 L 20 104 C 20 108.421875 23.578125 112 28 112 L 92 112 C 96.421875 112 100 108.421875 100 104 L 100 34 C 100 32.941406 99.578125 31.925781 98.828125 31.171875 Z M 40 60 C 37.792969 60 36 58.207031 36 56 C 36 53.792969 37.792969 52 40 52 C 42.207031 52 44 53.792969 44 56 C 44 58.207031 42.207031 60 40 60 Z M 40 76 C 37.792969 76 36 74.207031 36 72 C 36 69.792969 37.792969 68 40 68 C 42.207031 68 44 69.792969 44 72 C 44 74.207031 42.207031 76 40 76 Z M 40 92 C 37.792969 92 36 90.207031 36 88 C 36 85.792969 37.792969 84 40 84 C 42.207031 84 44 85.792969 44 88 C 44 90.207031 42.207031 92 40 92 Z M 80 92 L 56 92 C 53.792969 92 52 90.207031 52 88 C 52 85.792969 53.792969 84 56 84 L 80 84 C 82.207031 84 84 85.792969 84 88 C 84 90.207031 82.207031 92 80 92 Z M 80 76 L 56 76 C 53.792969 76 52 74.207031 52 72 C 52 69.792969 53.792969 68 56 68 L 80 68 C 82.207031 68 84 69.792969 84 72 C 84 74.207031 82.207031 76 80 76 Z M 80 60 L 56 60 C 53.792969 60 52 58.207031 52 56 C 52 53.792969 53.792969 52 56 52 L 80 52 C 82.207031 52 84 53.792969 84 56 C 84 58.207031 82.207031 60 80 60 Z M 76 36 C 73.792969 36 72 34.207031 72 32 L 72 15.617188 L 92.382812 36 Z M 76 36 "/>
</g>
</svg>
